<svg width="64" height="64" viewBox="0 0 64 64" fill="none" xmlns="http://www.w3.org/2000/svg">
  <defs>
    <linearGradient id="bg" x1="8" y1="6" x2="56" y2="58" gradientUnits="userSpaceOnUse">
      <stop offset="0" stop-color="#1E3E72"/>
      <stop offset="1" stop-color="#112544"/>
    </linearGradient>
    <linearGradient id="edge" x1="16" y1="12" x2="47" y2="50" gradientUnits="userSpaceOnUse">
      <stop offset="0" stop-color="#66E8FF"/>
      <stop offset="1" stop-color="#4E7CFF"/>
    </linearGradient>
  </defs>

  <rect x="2" y="2" width="60" height="60" rx="16" fill="url(#bg)" stroke="#315282" stroke-width="2"/>

  <path d="M24 50V29L29 17H35L37 23L41 17H45L50 29V50H24Z" fill="#DDEBFF"/>
  <path d="M29 17L25.5 10.5H30.8L33.4 17H29Z" fill="#DDEBFF"/>
  <path d="M42 17L45.2 10.5H50L47.2 17H42Z" fill="#DDEBFF"/>
  <rect x="29.5" y="30.5" width="4" height="4" rx="2" fill="#0D1D37"/>
  <rect x="39.5" y="30.5" width="4" height="4" rx="2" fill="#0D1D37"/>
  <path d="M34 40C35.2 41.7 37 42.5 38.8 42.5C40.4 42.5 41.9 41.9 43 40.7" stroke="#0D1D37" stroke-width="2" stroke-linecap="round"/>
  <path d="M14 46L22 40L29 43L39 35L50 37" stroke="url(#edge)" stroke-width="3" stroke-linecap="round" stroke-linejoin="round"/>
</svg>
